<?xml version="1.0" standalone="no"?>
<!DOCTYPE svg PUBLIC "-//W3C//DTD SVG 20010904//EN"
 "http://www.w3.org/TR/2001/REC-SVG-20010904/DTD/svg10.dtd">
<svg version="1.0" xmlns="http://www.w3.org/2000/svg"
 width="1080.000000pt" height="1920.000000pt" viewBox="0 0 1080.000000 1920.000000"
 preserveAspectRatio="xMidYMid meet">

<g transform="translate(0.000000,1920.000000) scale(0.100000,-0.100000)"
fill="#000000" stroke="none">
<path d="M5885 12530 c-295 -31 -564 -170 -756 -391 -143 -164 -229 -339 -275
-559 -22 -104 -25 -383 -6 -475 31 -143 90 -289 155 -384 16 -24 33 -59 37
-77 7 -30 5 -34 -11 -34 -11 0 -151 74 -312 164 -161 90 -348 194 -417 231
-69 38 -213 118 -320 179 -291 167 -363 193 -501 183 -154 -10 -301 -115 -372
-264 -80 -169 -28 -405 115 -525 74 -62 108 -80 228 -123 205 -73 629 -281
850 -419 305 -190 488 -370 534 -526 55 -186 -23 -353 -361 -763 -165 -200
-368 -333 -478 -313 -46 9 -111 59 -144 112 -16 24 -50 106 -75 181 -27 77
-62 159 -82 189 -48 72 -128 142 -211 184 -66 34 -71 35 -188 35 -132 0 -165
-8 -256 -61 -82 -48 -141 -114 -190 -209 -72 -143 -71 -279 5 -536 118 -403
238 -681 378 -886 68 -98 134 -157 225 -201 68 -32 89 -37 169 -40 117 -5 205
12 432 87 214 70 301 113 497 244 204 136 278 171 376 175 91 5 111 -4 141
-61 20 -37 23 -56 22 -162 -1 -87 -7 -146 -23 -215 -52 -220 -53 -221 -41
-288 28 -160 121 -274 270 -327 61 -22 199 -34 261 -23 108 20 245 101 294
176 28 42 226 631 310 922 132 458 207 781 285 1229 30 171 58 303 67 317 18
28 113 84 202 118 55 22 124 36 246 51 174 21 366 75 496 140 97 49 234 144
324 225 44 40 142 117 217 172 224 162 269 226 276 394 4 94 2 106 -23 162
-34 75 -121 162 -199 198 -79 36 -167 42 -252 16 -83 -25 -140 -61 -254 -156
-47 -39 -128 -106 -180 -147 -52 -42 -131 -106 -175 -143 -44 -37 -109 -84
-145 -104 -62 -35 -70 -37 -155 -37 -108 0 -170 20 -215 71 -38 44 -42 102 -7
123 162 102 334 321 421 539 61 153 78 231 83 394 9 238 -21 387 -113 576
-222 452 -689 714 -1179 662z"/>
</g>
</svg>
